HIERARCHY
ROOT Hips
{
  OFFSET 39.2232 98.7909 4.19108
  CHANNELS 6 Xposition Yposition Zposition Zrotation Xrotation Yrotation
  JOINT spine
  {
    OFFSET 0 8.30103 0.477351
    CHANNELS 3 Zrotation Xrotation Yrotation
    JOINT spine1
    {
      OFFSET 0 10.4565 0
      CHANNELS 3 Zrotation Xrotation Yrotation
      JOINT spine2
      {
        OFFSET 0 10.0192 0
        CHANNELS 3 Zrotation Xrotation Yrotation
        JOINT Neck
        {
          OFFSET 0 25.7235 1.22641
          CHANNELS 3 Zrotation Xrotation Yrotation
          JOINT Head
          {
            OFFSET 0 7.77175 0
            CHANNELS 3 Zrotation Xrotation Yrotation
            End Site
            {
              OFFSET 0 18.812 -6.20394
            }
          }
        }
        JOINT RightShoulder
        {
          OFFSET -4.2188 10.82 -0.587439
          CHANNELS 3 Zrotation Xrotation Yrotation
          JOINT RightArm
          {
            OFFSET 0 14.1914 0
            CHANNELS 3 Zrotation Xrotation Yrotation
            JOINT RightArmRoll
            {
              OFFSET 0 7.16408 0
              CHANNELS 3 Zrotation Xrotation Yrotation
              JOINT RightForeArm
              {
                OFFSET 0 20.8665 0
                CHANNELS 3 Zrotation Xrotation Yrotation
                JOINT RightForeArmRoll
                {
                  OFFSET 0 8.03921 0
                  CHANNELS 3 Zrotation Xrotation Yrotation
                  JOINT RightHand
                  {
                    OFFSET 0 16.133 0
                    CHANNELS 3 Zrotation Xrotation Yrotation
                    End Site
                    {
                      OFFSET 0 0 0
                    }
                  }
                }
              }
            }
          }
        }
        JOINT LeftShoulder
        {
          OFFSET 4.2188 10.82 -0.587439
          CHANNELS 3 Zrotation Xrotation Yrotation
          JOINT LeftArm
          {
            OFFSET 0 14.1914 0
            CHANNELS 3 Zrotation Xrotation Yrotation
            JOINT LeftArmRoll
            {
              OFFSET 0 7.16408 0
              CHANNELS 3 Zrotation Xrotation Yrotation
              JOINT LeftForeArm
              {
                OFFSET 0 20.8665 0
                CHANNELS 3 Zrotation Xrotation Yrotation
                JOINT LeftForeArmRoll
                {
                  OFFSET 0 8.03921 0
                  CHANNELS 3 Zrotation Xrotation Yrotation
                  JOINT LeftHand
                  {
                    OFFSET 0 16.133 0
                    CHANNELS 3 Zrotation Xrotation Yrotation
                    End Site
                    {
                      OFFSET 0 0 0
                    }
                  }
                }
              }
            }
          }
        }
      }
    }
  }
  JOINT RightUpLeg
  {
    OFFSET -7.35773 -1.34921 -1.13181
    CHANNELS 3 Zrotation Xrotation Yrotation
    JOINT RightUpLegRoll
    {
      OFFSET 0 18.9168 0
      CHANNELS 3 Zrotation Xrotation Yrotation
      JOINT RightLeg
      {
        OFFSET 0 -23.4256 0
        CHANNELS 3 Zrotation Xrotation Yrotation
        JOINT RightLegRoll
        {
          OFFSET 0 23.5023 0
          CHANNELS 3 Zrotation Xrotation Yrotation
          JOINT RightFoot
          {
            OFFSET 0 19.5617 0
            CHANNELS 3 Zrotation Xrotation Yrotation
            JOINT RightToeBase
            {
              OFFSET 0 16.3526 0
              CHANNELS 3 Zrotation Xrotation Yrotation
              End Site
              {
                OFFSET 0.00693125 7.91944 -0.912837
              }
            }
          }
        }
      }
    }
  }
  JOINT LeftUpLeg
  {
    OFFSET 7.35773 -1.34921 -1.13181
    CHANNELS 3 Zrotation Xrotation Yrotation
    JOINT LeftUpLegRoll
    {
      OFFSET 0 18.9169 0
      CHANNELS 3 Zrotation Xrotation Yrotation
      JOINT LeftLeg
      {
        OFFSET 0 23.4255 0
        CHANNELS 3 Zrotation Xrotation Yrotation
        JOINT LeftLegRoll
        {
          OFFSET 0 23.7195 0
          CHANNELS 3 Zrotation Xrotation Yrotation
          JOINT LeftFoot
          {
            OFFSET 0 19.3444 0
            CHANNELS 3 Zrotation Xrotation Yrotation
            JOINT LeftToeBase
            {
              OFFSET 0 16.3526 0
              CHANNELS 3 Zrotation Xrotation Yrotation
              End Site
              {
                OFFSET -0.0310629 7.91944 -0.912836
              }
            }
          }
        }
      }
    }
  }
}
MOTION
Frames: 6
Frame Time: 0.00208333
39.5916 98.8277 4.31382 1.03749 -3.213 1.37172 0.103341 -1.24024 0.0348232 0.210213 1.51257 0.0569435 0.210022 3.15763 0.0535152 -3.98787 22.8848 0.427319 1.62472 -9.02043 -0.668711 73.8977 -0.569893 -2.0169 95.7606 26.6777 33.2093 2.84186e-006 1.67116e-006 4.73337e-006 -1.35589 -0.0151617 1.11067 2.32126e-006 -2.18614e-006 -3.11148 8.03025 -4.95138 0.69763 -67.177 1.92716 0.0178525 -101.085 10.8998 -15.2882 6.75868e-015 1.59028e-015 -4.77083e-015 -11.1631 4.57547 0.941454 4.47003e-006 2.07935e-006 3.00794 -8.0289 -4.95146 -0.69768 175.27 -1.99793 1.94234 180 7.0154e-015 178.893 175.445 5.06292 179.791 4.15996e-007 -3.04926e-006 0.0601909 -18.3883 67.6918 19.27 8.13649 25.2326 -3.48773 -176.401 -2.04928 1.17205 4.54188e-006 -4.6773e-006 -1.17617 -3.39589 -8.64148 0.423929 4.11261e-006 -3.5384e-006 -0.111515 18.4372 67.5988 -19.2017 -8.13649 25.2327 3.48774 
39.5927 98.8255 4.31811 1.03836 -3.2196 1.37995 0.104361 -1.23974 0.0345754 0.211426 1.5132 0.0566236 0.211216 3.15826 0.0531776 -4.00188 22.8898 0.428728 1.63447 -9.02852 -0.670473 73.8955 -0.577669 -2.02016 95.7061 26.6656 33.3491 2.84186e-006 1.67116e-006 4.73337e-006 -1.47231 -0.01553 1.13566 2.32126e-006 -2.18614e-006 -3.1109 8.03025 -4.95138 0.69763 -67.1965 1.93601 0.0159606 -101.077 10.8727 -15.4201 3.18055e-015 -4.77083e-015 -1.59028e-015 -11.0664 4.59771 0.946218 4.47003e-006 2.07935e-006 3.00794 -8.0289 -4.95146 -0.69768 175.269 -2.0082 1.94483 180 7.0154e-015 178.893 175.444 5.0626 179.791 4.15996e-007 -3.04926e-006 0.0601909 -18.3879 67.6914 19.2696 8.13649 25.2326 -3.48773 -176.401 -2.05323 1.16753 4.54188e-006 -4.6773e-006 -1.17617 -3.39924 -8.65255 0.423113 4.11261e-006 -3.5384e-006 -0.111515 18.4386 67.6005 -19.2032 -8.13649 25.2327 3.48774 
39.5914 98.823 4.32032 1.03919 -3.22665 1.38827 0.105414 -1.23905 0.0342679 0.212656 1.51415 0.0561962 0.212427 3.15922 0.0527326 -4.01662 22.8931 0.430476 1.64474 -9.03483 -0.672028 73.8934 -0.585278 -2.02335 95.6535 26.654 33.4871 2.84186e-006 1.67116e-006 4.73337e-006 -1.58808 -0.015874 1.16047 2.32126e-006 -2.18614e-006 -3.11033 8.03025 -4.95138 0.69763 -67.2159 1.94496 0.0139993 -101.07 10.8464 -15.5516 -9.93923e-015 -6.36111e-015 -1.59028e-015 -10.9696 4.61804 0.95089 4.47003e-006 2.07935e-006 3.00794 -8.0289 -4.95146 -0.69768 175.268 -2.01908 1.94739 180 7.0154e-015 178.893 175.443 5.06215 179.792 4.15996e-007 -3.04926e-006 0.0601909 -18.3877 67.6911 19.2693 8.13649 25.2326 -3.48773 -176.401 -2.05766 1.16281 4.54188e-006 -4.6773e-006 -1.17617 -3.40271 -8.6638 0.422276 4.11261e-006 -3.5384e-006 -0.111515 18.4399 67.6022 -19.2046 -8.13649 25.2327 3.48774 
39.5842 98.825 4.34276 1.04 -3.23402 1.39664 0.10649 -1.23823 0.0339188 0.213898 1.51532 0.0556936 0.213651 3.16039 0.0522123 -4.03186 22.8953 0.432463 1.65538 -9.03989 -0.673437 73.8915 -0.592768 -2.0265 95.6024 26.6428 33.624 2.84186e-006 1.67116e-006 4.73337e-006 -1.7034 -0.0162009 1.18517 2.32126e-006 -2.18614e-006 -3.10977 8.03025 -4.95138 0.69763 -67.2351 1.95397 0.0119895 -101.064 10.8206 -15.6829 -1.43125e-014 -7.95139e-015 -6.36111e-015 -10.8727 4.63705 0.955499 4.47003e-006 2.07935e-006 3.00794 -8.0289 -4.95146 -0.69768 175.267 -2.03039 1.95 180 7.0154e-015 178.893 175.441 5.06161 179.792 4.15996e-007 -3.04926e-006 0.0601909 -18.3874 67.6908 19.269 8.13649 25.2326 -3.48773 -176.401 -2.06243 1.15795 4.54188e-006 -4.6773e-006 -1.17617 -3.40625 -8.67519 0.421425 4.11261e-006 -3.5384e-006 -0.111515 18.4413 67.6039 -19.2061 -8.13649 25.2327 3.48774 
39.5869 98.8283 4.34362 1.04081 -3.24158 1.40505 0.107579 -1.23734 0.0335459 0.215146 1.51663 0.055148 0.214883 3.1617 0.051649 -4.0474 22.8968 0.434585 1.66622 -9.04424 -0.674764 73.8896 -0.600192 -2.02962 95.552 26.6316 33.76 2.84186e-006 1.67116e-006 4.73337e-006 -1.81846 -0.0165181 1.20981 2.32126e-006 -2.18614e-006 -3.10921 8.03025 -4.95138 0.69763 -67.2544 1.96302 0.00995194 -101.059 10.795 -15.8141 -9.93923e-015 -6.36111e-015 -3.18055e-015 -10.7757 4.6553 0.960071 4.47003e-006 2.07935e-006 3.00794 -8.0289 -4.95146 -0.69768 175.266 -2.04195 1.95263 180 7.0154e-015 178.893 175.44 5.06102 179.792 4.15996e-007 -3.04926e-006 0.0601909 -18.3871 67.6904 19.2688 8.13649 25.2326 -3.48773 -176.4 -2.06739 1.15301 4.54188e-006 -4.6773e-006 -1.17617 -3.40983 -8.68665 0.420566 4.11261e-006 -3.5384e-006 -0.111515 18.4427 67.6056 -19.2076 -8.13649 25.2327 3.48774 
39.5946 98.8229 4.31537 1.04161 -3.24918 1.41346 0.108672 -1.23643 0.0331669 0.216397 1.51797 0.0545917 0.216116 3.16304 0.051075 -4.063 22.8982 0.436741 1.67712 -9.0484 -0.676069 73.8877 -0.607598 -2.03274 95.5018 26.6203 33.8959 2.84186e-006 1.67116e-006 4.73337e-006 -1.93346 -0.0168329 1.23442 2.32126e-006 -2.18614e-006 -3.10866 8.03025 -4.95138 0.69763 -67.2736 1.97208 0.00790743 -101.054 10.7695 -15.9452 -8.34896e-015 -7.95139e-015 -9.54166e-015 -10.6787 4.67336 0.964634 4.47003e-006 2.07935e-006 3.00794 -8.0289 -4.95146 -0.69768 175.265 -2.05356 1.95527 180 7.0154e-015 178.893 175.438 5.06042 179.792 4.15996e-007 -3.04926e-006 0.0601909 -18.3869 67.6901 19.2685 8.13649 25.2326 -3.48773 -176.4 -2.0724 1.14806 4.54188e-006 -4.6773e-006 -1.17617 -3.41343 -8.69814 0.419705 4.11261e-006 -3.5384e-006 -0.111515 18.4441 67.6074 -19.2091 -8.13649 25.2327 3.48774 
